<svg xmlns="http://www.w3.org/2000/svg" width="24" height="24" fill="none"><path fill="#A259FF" fill-rule="evenodd" d="M4.5 9.338a.75.75 0 0 1 .75.75V19.5h13.5v-9.412a.75.75 0 0 1 1.5 0V19.5a1.5 1.5 0 0 1-1.5 1.5H5.25a1.5 1.5 0 0 1-1.5-1.5v-9.412a.75.75 0 0 1 .75-.75M2.25 3.75A.75.75 0 0 1 3 3h18a.75.75 0 0 1 0 1.5H3a.75.75 0 0 1-.75-.75" clip-rule="evenodd"/><path fill="#A259FF" fill-rule="evenodd" d="M3 5.25a.75.75 0 0 1 .75.75v1.5a2.25 2.25 0 1 0 4.5 0V6a.75.75 0 0 1 1.5 0v1.5a3.75 3.75 0 1 1-7.5 0V6A.75.75 0 0 1 3 5.25" clip-rule="evenodd"/><path fill="#A259FF" fill-rule="evenodd" d="M9 5.25a.75.75 0 0 1 .75.75v1.5a2.25 2.25 0 1 0 4.5 0V6a.75.75 0 0 1 1.5 0v1.5a3.75 3.75 0 1 1-7.5 0V6A.75.75 0 0 1 9 5.25" clip-rule="evenodd"/><path fill="#A259FF" fill-rule="evenodd" d="M15 5.25a.75.75 0 0 1 .75.75v1.5a2.25 2.25 0 0 0 4.5 0V6a.75.75 0 0 1 1.5 0v1.5a3.75 3.75 0 1 1-7.5 0V6a.75.75 0 0 1 .75-.75" clip-rule="evenodd"/></svg>