<svg xmlns="http://www.w3.org/2000/svg" width="150" height="16" fill="none"><path fill="#fff" d="M5.61 10.91h.297V.45h2.178V12H3.828L2.475 1.537h-.297V12H0V.45h4.257zM10.549.45h7.392v2.078h-5.214v2.64h5.115v2.08h-5.115v4.751h-2.178zM20.09.45h8.317v2.078h-3.07V12H23.16V2.53h-3.07zM39.769.45h3.828l.66 8.678v1.683h.396V9.128l.66-8.679h3.828V12h-1.98V4.277l.198-2.64h-.396L46.105 12h-3.267l-.891-10.362h-.396l.198 2.64V12h-1.98zM56.092 10.811q-.33.776-.924 1.106-.594.313-1.386.313-.742 0-1.402-.28a3.3 3.3 0 0 1-1.139-.825 4.1 4.1 0 0 1-.792-1.32q-.28-.776-.28-1.766v-.264q0-.974.28-1.749t.76-1.32a3.2 3.2 0 0 1 1.105-.825 3.2 3.2 0 0 1 1.37-.297q.873 0 1.402.297.544.297.858.924h.297v-.99h2.079v5.71q0 .495.445.494h.314V12h-1.42q-.56 0-.923-.33-.347-.33-.347-.858zm-1.848-.56q.908 0 1.452-.595.545-.61.545-1.65v-.198q0-1.04-.545-1.633-.544-.61-1.452-.61t-1.452.61q-.544.594-.544 1.633v.198q0 1.04.544 1.65.544.594 1.452.594M60.503 3.815h3.465v1.188h.297q.23-.675.775-1.04.561-.379 1.337-.379 1.22 0 1.963.776.743.759.743 2.326v.363l-2.145.198v-.23q0-.678-.347-1.073-.345-.413-1.04-.413-.692 0-1.088.479-.396.478-.396 1.37v2.64h1.88V12h-5.642v-1.98h1.683V5.794h-1.485zM73.74 6.818h.397l2.178-3.003h2.277v.1l-2.64 3.745v.297l2.904 3.943v.1H76.48l-2.343-3.202h-.396V12h-2.08V.45h2.08zM82.936 8.584q.016.363.165.676.165.297.43.528.28.215.626.347.363.115.76.115.774 0 1.187-.264.413-.28.594-.66l1.782.99a3.8 3.8 0 0 1-.412.66q-.264.33-.693.61a3.7 3.7 0 0 1-1.023.463q-.594.18-1.403.181a4.6 4.6 0 0 1-1.683-.297 3.8 3.8 0 0 1-1.32-.858 4 4 0 0 1-.858-1.37q-.297-.808-.297-1.83v-.1q0-.94.314-1.716.33-.776.89-1.32a4 4 0 0 1 1.304-.841 4.2 4.2 0 0 1 1.617-.314q1.057 0 1.815.38.759.363 1.254.94a3.6 3.6 0 0 1 .726 1.254q.231.676.231 1.32v1.106zM84.9 5.465q-.792 0-1.287.413-.495.396-.644.924h3.861q-.099-.577-.627-.957-.51-.38-1.303-.38M90.977 3.815h2.425V.45h2.08v3.366h2.953v1.98H95.48v3.73q0 .495.446.494h2.21V12h-3.464q-.561 0-.924-.363-.347-.363-.347-.924V5.795h-2.425zM102.961 15.3h-2.079V3.814h2.079v1.188h.297a2.37 2.37 0 0 1 .957-1.04q.627-.379 1.6-.379.726 0 1.37.28.66.282 1.138.826.495.528.776 1.303.297.776.297 1.766v.297q0 1.006-.281 1.782-.28.776-.759 1.32a3.2 3.2 0 0 1-1.138.808 3.7 3.7 0 0 1-1.403.264 3.6 3.6 0 0 1-.973-.115 2.7 2.7 0 0 1-.726-.314 2.5 2.5 0 0 1-.512-.445 4 4 0 0 1-.346-.545h-.297zm2.178-5.05q.973 0 1.567-.594.61-.61.611-1.65v-.198q0-1.04-.611-1.633-.594-.61-1.567-.61-.974 0-1.584.626-.594.61-.594 1.617v.198q0 1.007.594 1.634.61.61 1.584.61M111.364 10.02h2.871V2.43h-2.772V.45h4.851v9.57h2.673V12h-7.623zM126.813 10.811q-.33.776-.924 1.106-.594.313-1.386.313-.742 0-1.402-.28a3.3 3.3 0 0 1-1.139-.825 4.1 4.1 0 0 1-.792-1.32q-.28-.776-.28-1.766v-.264q0-.974.28-1.749t.759-1.32a3.2 3.2 0 0 1 1.106-.825 3.2 3.2 0 0 1 1.369-.297q.875 0 1.403.297.544.297.858.924h.297v-.99h2.079v5.71q0 .495.445.494h.314V12h-1.419q-.561 0-.924-.33-.347-.33-.347-.858zm-1.848-.56q.908 0 1.452-.595.545-.61.545-1.65v-.198q0-1.04-.545-1.633-.544-.61-1.452-.61t-1.452.61q-.544.594-.544 1.633v.198q0 1.04.544 1.65.544.594 1.452.594M139.606 8.996q-.28 1.453-1.337 2.343-1.04.891-2.788.891a5 5 0 0 1-1.7-.28 4 4 0 0 1-1.353-.809 3.7 3.7 0 0 1-.907-1.303q-.33-.776-.33-1.766v-.198q0-.99.33-1.782a4 4 0 0 1 .907-1.353q.594-.561 1.37-.858a4.8 4.8 0 0 1 1.683-.297q1.716 0 2.772.891 1.072.891 1.353 2.343l-2.046.528a2.14 2.14 0 0 0-.627-1.254q-.528-.528-1.485-.528-.446 0-.842.165a2 2 0 0 0-.693.479 2.2 2.2 0 0 0-.478.742q-.165.428-.165.974v.099q0 .544.165.973.181.412.478.693t.693.43q.396.13.842.131.957 0 1.452-.478.512-.48.66-1.287zM143.554 8.584q.016.363.165.676.165.297.429.528.28.215.627.347.363.115.759.115.776 0 1.188-.264.412-.28.594-.66l1.782.99a3.8 3.8 0 0 1-.412.66q-.264.33-.693.61a3.7 3.7 0 0 1-1.023.463q-.594.18-1.403.181a4.6 4.6 0 0 1-1.683-.297 3.8 3.8 0 0 1-1.32-.858 4 4 0 0 1-.858-1.37q-.297-.808-.297-1.83v-.1q0-.94.314-1.716.33-.776.891-1.32a4 4 0 0 1 1.303-.841 4.2 4.2 0 0 1 1.617-.314q1.056 0 1.815.38.759.363 1.254.94a3.6 3.6 0 0 1 .726 1.254q.231.676.231 1.32v1.106zm1.964-3.119q-.792 0-1.287.413-.495.396-.644.924h3.861q-.099-.577-.627-.957-.511-.38-1.303-.38"/></svg>