<svg xmlns="http://www.w3.org/2000/svg" width="20" height="20" fill="none"><path fill="#fff" fill-rule="evenodd" d="M6.17 12.45a.625.625 0 0 1-.393.791c-1.06.356-1.622 1.246-1.923 2.15-.12.36-.192.705-.236.99.286-.043.632-.115.991-.235.905-.3 1.794-.864 2.15-1.923a.625.625 0 0 1 1.185.398c-.534 1.59-1.856 2.35-2.94 2.711a7.4 7.4 0 0 1-2.019.363h-.054000000000000006l-.001-.625h-.625v-.017a3 3 0 0 1 .006-.169 7.373 7.373 0 0 1 .357-1.888c.36-1.084 1.122-2.405 2.71-2.94a.625.625 0 0 1 .793.393m-3.24 4.62h-.625c0 .346.28.625.625.625zM16.546 3.454c-.725-.105-2.51-.144-4.338 1.684L7.345 10 10 12.656l4.863-4.863c1.827-1.828 1.788-3.613 1.683-4.339m.181-1.237c-.997-.144-3.221-.145-5.403 2.037L6.019 9.558a.625.625 0 0 0 0 .884l3.54 3.54c.243.243.639.243.883 0l5.305-5.305c2.182-2.182 2.18-4.406 2.036-5.404a1.234 1.234 0 0 0-1.056-1.056" clip-rule="evenodd"/><path fill="#fff" fill-rule="evenodd" d="M14.422 8.492c.345 0 .625.28.625.625v5.056a1.25 1.25 0 0 1-.372.872l-2.522 2.53a1.25 1.25 0 0 1-2.11-.64l-.656-3.273a.625.625 0 1 1 1.226-.246l.656 3.275 2.528-2.536V9.117c0-.345.28-.625.625-.625M5.827 4.953h5.056a.625.625 0 1 1 0 1.25H5.845l-.005.005-2.53 2.523 3.274.656a.625.625 0 0 1-.246 1.226l-3.272-.656a1.25 1.25 0 0 1-.64-2.11l2.53-2.522a1.25 1.25 0 0 1 .871-.372" clip-rule="evenodd"/></svg>